<svg xmlns="http://www.w3.org/2000/svg" viewBox="0 0 900 1125">
  <defs>
    <linearGradient id="bg" x1="0" y1="0" x2="0" y2="1">
      <stop offset="0" stop-color="#FAF7F2"/>
      <stop offset="1" stop-color="#F2E8D9"/>
    </linearGradient>
  </defs>
  <rect width="900" height="1125" fill="url(#bg)"/>

  <!-- arch backdrop -->
  <path d="M190 900 L190 480 A260 260 0 0 1 710 480 L710 900 Z" fill="#F0E6D3"/>
  <path d="M160 935 L160 480 A290 290 0 0 1 740 480 L740 935" fill="none" stroke="#C4956A" stroke-opacity="0.4" stroke-width="3"/>

  <!-- blow dryer -->
  <g fill="none" stroke="#8C6240" stroke-width="11" stroke-linecap="round" stroke-linejoin="round">
    <rect x="285" y="395" width="230" height="105" rx="34"/>
    <path d="M515 415 L595 435 L595 462 L515 482"/>
    <path d="M342 500 L312 615 Q307 636 328 639 L366 644 Q378 645 381 630 L402 500"/>
    <path d="M312 420 v55 M334 420 v55"/>
  </g>
  <g fill="none" stroke="#C4956A" stroke-width="8" stroke-linecap="round">
    <path d="M622 430 h56"/>
    <path d="M622 449 h40"/>
    <path d="M622 468 h56"/>
  </g>

  <!-- scissors -->
  <g fill="none" stroke="#8C6240" stroke-linecap="round">
    <path d="M452 762 L368 645" stroke-width="15"/>
    <path d="M452 762 L536 645" stroke-width="15"/>
    <path d="M448 770 L423 806" stroke-width="10"/>
    <path d="M456 770 L481 806" stroke-width="10"/>
    <circle cx="408" cy="833" r="31" stroke-width="10"/>
    <circle cx="496" cy="833" r="31" stroke-width="10"/>
  </g>
  <circle cx="452" cy="764" r="9" fill="#C4956A"/>

  <!-- sparkles -->
  <g stroke="#C4956A" stroke-width="6" stroke-linecap="round">
    <path d="M636 590 v28 M622 604 h28"/>
    <path d="M268 700 v22 M257 711 h22"/>
    <path d="M580 545 v16 M572 553 h16" stroke-opacity="0.6"/>
  </g>
</svg>
